# Blender 5.1.2
# www.blender.org
mtllib camerastand.mtl
o Cube.002
v 0.066042 0.589191 -0.057438
v 0.066042 0.589191 0.057438
v -0.066042 0.589191 -0.057438
v -0.066042 0.589191 0.057438
v -1.534428 -0.169711 0.564603
v -1.534428 0.761763 0.564603
v -1.534428 0.761763 -0.564603
v -1.534428 -0.169711 -0.564603
v -0.139539 0.404992 0.121359
v -0.140714 0.409720 0.130843
v -0.150444 0.409720 0.122381
v -0.139866 0.406377 0.127627
v -0.145623 0.406990 0.126650
v -0.147577 0.409720 0.128350
v -0.146746 0.406377 0.121643
v -0.196870 0.584462 0.162758
v -0.187140 0.584462 0.171220
v -0.188478 0.589191 0.163921
v -0.194003 0.584462 0.168727
v -0.193500 0.587192 0.168290
v -0.188069 0.587806 0.169550
v -0.194949 0.587806 0.163566
v -0.150444 0.409720 -0.122381
v -0.140714 0.409720 -0.130843
v -0.139539 0.404992 -0.121359
v -0.147577 0.409720 -0.128350
v -0.145623 0.406990 -0.126650
v -0.139866 0.406377 -0.127627
v -0.146746 0.406377 -0.121643
v -0.188478 0.589191 -0.163921
v -0.187140 0.584462 -0.171220
v -0.196870 0.584462 -0.162758
v -0.188069 0.587806 -0.169550
v -0.193500 0.587192 -0.168290
v -0.194003 0.584462 -0.168727
v -0.194949 0.587806 -0.163566
v 0.150444 0.409720 0.122381
v 0.140714 0.409720 0.130843
v 0.139539 0.404992 0.121359
v 0.147577 0.409720 0.128350
v 0.145623 0.406990 0.126650
v 0.139866 0.406377 0.127627
v 0.146746 0.406377 0.121643
v 0.188478 0.589191 0.163921
v 0.187140 0.584462 0.171220
v 0.196870 0.584462 0.162758
v 0.188069 0.587806 0.169550
v 0.193500 0.587192 0.168290
v 0.194003 0.584462 0.168727
v 0.194949 0.587806 0.163566
v 0.140714 0.409720 -0.130843
v 0.150444 0.409720 -0.122381
v 0.139539 0.404992 -0.121359
v 0.147577 0.409720 -0.128350
v 0.145623 0.406990 -0.126650
v 0.146746 0.406377 -0.121643
v 0.139866 0.406377 -0.127627
v 0.188478 0.589191 -0.163921
v 0.196870 0.584462 -0.162758
v 0.187140 0.584462 -0.171220
v 0.194949 0.587806 -0.163566
v 0.193500 0.587192 -0.168290
v 0.194003 0.584462 -0.168727
v 0.188069 0.587806 -0.169550
v 0.050845 0.403655 -0.121695
v 0.050148 0.409720 -0.130843
v 0.050179 0.405985 -0.127711
v -0.050148 0.409720 -0.130843
v -0.050845 0.403655 -0.121695
v -0.050179 0.405985 -0.127711
v -0.066042 0.589191 -0.163921
v -0.065623 0.584462 -0.171220
v -0.065919 0.587806 -0.169535
v 0.065623 0.584462 -0.171220
v 0.066042 0.589191 -0.163921
v 0.065919 0.587806 -0.169535
v -0.050845 0.403655 0.121695
v -0.050148 0.409720 0.130843
v -0.050179 0.405985 0.127711
v 0.050148 0.409720 0.130843
v 0.050845 0.403655 0.121695
v 0.050179 0.405985 0.127711
v 0.066042 0.589191 0.163921
v 0.065623 0.584462 0.171220
v 0.065919 0.587806 0.169535
v -0.065623 0.584462 0.171220
v -0.066042 0.589191 0.163921
v -0.065919 0.587806 0.169535
v -0.139856 0.403778 -0.044932
v -0.150444 0.409720 -0.043614
v -0.146822 0.406021 -0.043849
v -0.150444 0.409720 0.043614
v -0.139856 0.403778 0.044932
v -0.146822 0.406021 0.043849
v -0.188478 0.589191 0.057438
v -0.196870 0.584462 0.057073
v -0.194932 0.587806 0.057331
v -0.196870 0.584462 -0.057073
v -0.188478 0.589191 -0.057438
v -0.194932 0.587806 -0.057331
v 0.139856 0.403778 0.044932
v 0.150444 0.409720 0.043614
v 0.146822 0.406021 0.043849
v 0.150444 0.409720 -0.043614
v 0.139856 0.403778 -0.044932
v 0.146822 0.406021 -0.043849
v 0.188478 0.589191 -0.057438
v 0.196870 0.584462 -0.057073
v 0.194932 0.587806 -0.057331
v 0.196870 0.584462 0.057073
v 0.188478 0.589191 0.057438
v 0.194932 0.587806 0.057331
v -0.059469 0.388555 -0.051032
v -0.068801 0.394596 -0.067479
v -0.049821 0.388555 -0.059423
v -0.062202 0.392300 -0.059247
v -0.059405 0.391523 -0.059351
v -0.059322 0.392300 -0.061783
v -0.056643 0.388555 -0.056966
v -0.059469 0.388555 0.051032
v -0.049821 0.388555 0.059423
v -0.068801 0.394596 0.067479
v -0.056643 0.388555 0.056966
v -0.059405 0.391523 0.059351
v -0.059322 0.392300 0.061783
v -0.062202 0.392300 0.059247
v 0.059469 0.388555 -0.051032
v 0.049821 0.388555 -0.059423
v 0.068801 0.394596 -0.067479
v 0.056643 0.388555 -0.056966
v 0.059405 0.391523 -0.059351
v 0.059322 0.392300 -0.061783
v 0.062202 0.392300 -0.059247
v 0.059469 0.388555 0.051032
v 0.068801 0.394596 0.067479
v 0.049821 0.388555 0.059423
v 0.062202 0.392300 0.059247
v 0.059405 0.391523 0.059351
v 0.059322 0.392300 0.061783
v 0.056643 0.388555 0.056966
v -0.059469 0.103986 -0.051032
v -0.049821 0.103986 -0.059423
v -0.049821 0.099216 -0.051032
v -0.056643 0.103986 -0.056966
v -0.055391 0.101232 -0.055877
v -0.049821 0.100613 -0.056966
v -0.056643 0.100613 -0.051032
v -0.059469 0.103986 0.051032
v -0.049821 0.099216 0.051032
v -0.049821 0.103986 0.059423
v -0.056643 0.100613 0.051032
v -0.055391 0.101232 0.055877
v -0.049821 0.100613 0.056966
v -0.056643 0.103986 0.056966
v 0.059469 0.103986 -0.051032
v 0.049821 0.099216 -0.051032
v 0.049821 0.103986 -0.059423
v 0.056643 0.100613 -0.051032
v 0.055391 0.101232 -0.055877
v 0.049821 0.100613 -0.056966
v 0.056643 0.103986 -0.056966
v 0.059469 0.103986 0.051032
v 0.049821 0.103986 0.059423
v 0.049821 0.099216 0.051032
v 0.056643 0.103986 0.056966
v 0.055391 0.101232 0.055877
v 0.049821 0.100613 0.056966
v 0.056643 0.100613 0.051032
v 0.049821 0.321808 0.059423
v 0.059469 0.321808 0.051032
v 0.056643 0.321808 0.056966
v 0.059469 0.223772 0.051032
v 0.049821 0.223772 0.059423
v 0.056643 0.223772 0.056966
v 0.049821 0.223772 -0.059423
v 0.059469 0.223772 -0.051032
v 0.056643 0.223772 -0.056966
v 0.059469 0.321808 -0.051032
v 0.049821 0.321808 -0.059423
v 0.056643 0.321808 -0.056966
v -0.059469 0.326578 -0.051032
v -0.049822 0.316754 -0.059349
v -0.069102 0.322085 -0.051179
v -0.056644 0.321666 -0.056944
v -0.059435 0.321794 -0.055895
v -0.059311 0.320405 -0.056985
v -0.062291 0.323286 -0.051106
v -0.059469 0.219003 -0.051032
v -0.069118 0.223803 -0.051180
v -0.049822 0.228510 -0.059349
v -0.062295 0.222385 -0.051106
v -0.059465 0.223771 -0.055895
v -0.059448 0.225169 -0.056987
v -0.056644 0.223757 -0.056944
v -0.059469 0.219003 0.051032
v -0.049822 0.228510 0.059349
v -0.069118 0.223803 0.051180
v -0.056644 0.223757 0.056944
v -0.059465 0.223771 0.055895
v -0.059448 0.225169 0.056987
v -0.062295 0.222385 0.051106
v -0.059469 0.326578 0.051032
v -0.069102 0.322085 0.051179
v -0.049822 0.316754 0.059349
v -0.062291 0.323286 0.051106
v -0.059435 0.321794 0.055895
v -0.059311 0.320405 0.056985
v -0.056644 0.321666 0.056944
v -1.505443 0.363298 -0.073346
v -1.505428 0.358520 -0.081738
v -1.515537 0.369013 -0.088572
v -1.505285 0.361894 -0.079278
v -1.511048 0.363677 -0.081378
v -1.512393 0.364225 -0.083810
v -1.512379 0.365082 -0.080569
v -1.505427 0.228447 -0.073346
v -1.515537 0.223005 -0.088570
v -1.505428 0.233216 -0.081738
v -1.512372 0.226870 -0.080524
v -1.511071 0.228224 -0.081369
v -1.512393 0.227664 -0.083809
v -1.505405 0.229843 -0.079280
v -1.505427 0.228447 0.073346
v -1.505428 0.233216 0.081738
v -1.515537 0.223004 0.088431
v -1.505405 0.229843 0.079280
v -1.511071 0.228216 0.081341
v -1.512394 0.227624 0.083769
v -1.512372 0.226870 0.080457
v -1.505443 0.363298 0.073346
v -1.515537 0.369013 0.088433
v -1.505428 0.358520 0.081738
v -1.512379 0.365082 0.080503
v -1.511048 0.363686 0.081349
v -1.512394 0.364266 0.083769
v -1.505285 0.361894 0.079278
v -1.558027 0.756491 -0.559587
v -1.548000 0.751675 -0.558929
v -1.557596 0.751712 -0.568316
v -1.551156 0.755347 -0.559279
v -1.552253 0.754671 -0.563600
v -1.550991 0.751692 -0.564433
v -1.557413 0.755123 -0.565668
v -1.558027 -0.168282 -0.559587
v -1.557596 -0.163448 -0.568316
v -1.548000 -0.162186 -0.558931
v -1.556944 -0.166804 -0.565529
v -1.552156 -0.165749 -0.563571
v -1.550991 -0.162773 -0.564434
v -1.551145 -0.166246 -0.559276
v -1.558027 -0.168282 0.543782
v -1.548000 -0.162186 0.548924
v -1.557596 -0.163448 0.552765
v -1.551143 -0.166245 0.546221
v -1.552419 -0.165757 0.550872
v -1.550951 -0.162724 0.552723
v -1.558211 -0.166886 0.549990
v -1.558027 0.756491 0.543782
v -1.557596 0.751712 0.552765
v -1.548000 0.751674 0.548922
v -1.558679 0.755040 0.549851
v -1.552516 0.754653 0.550837
v -1.550950 0.751691 0.552721
v -1.551154 0.755346 0.546187
v -1.558028 0.756491 -0.559587
v -1.558459 0.751656 -0.568571
v -1.567593 0.751099 -0.562882
v -1.558243 0.755061 -0.565817
v -1.563642 0.754102 -0.566459
v -1.565007 0.751248 -0.568147
v -1.564702 0.754667 -0.561794
v -1.558027 -0.168282 -0.559587
v -1.567593 -0.164136 -0.562882
v -1.558459 -0.163504 -0.568571
v -1.564702 -0.167327 -0.561794
v -1.563642 -0.166624 -0.566459
v -1.565007 -0.163949 -0.568147
v -1.558243 -0.166881 -0.565817
v -1.558027 -0.168282 0.543782
v -1.558459 -0.163504 0.552510
v -1.567593 -0.164136 0.541416
v -1.558243 -0.166881 0.549884
v -1.563641 -0.166624 0.547332
v -1.565007 -0.163949 0.548211
v -1.564702 -0.167327 0.542039
v -1.558028 0.756491 0.543782
v -1.567593 0.751099 0.541416
v -1.558459 0.751656 0.552510
v -1.564702 0.754667 0.542039
v -1.563642 0.754102 0.547332
v -1.565007 0.751248 0.548211
v -1.558243 0.755061 0.549884
vn -0.0000 1.0000 -0.0000
vn -0.0781 -0.9930 0.0890
vn -0.0678 -0.9861 0.1516
vn -0.1593 -0.9701 0.1832
vn -0.1382 -0.9804 0.1407
vn -0.0000 -0.2252 0.9743
vn -0.1811 -0.4659 0.8661
vn -0.2262 -0.6737 0.7036
vn -0.1204 -0.5242 0.8430
vn -0.9665 -0.2568 -0.0000
vn -0.7822 -0.6210 0.0508
vn -0.6465 -0.7117 0.2748
vn -0.8279 -0.5121 0.2289
vn -0.9665 -0.2567 -0.0000
vn -0.9718 0.0073 0.2356
vn -0.8704 0.3248 0.3700
vn -0.9345 0.1665 0.3146
vn -0.0000 -0.2251 0.9743
vn -0.1372 0.0988 0.9856
vn -0.2924 0.2952 0.9096
vn -0.1804 0.0064 0.9836
vn -0.1400 0.9899 0.0223
vn -0.1904 0.9570 0.2189
vn -0.0783 0.9887 0.1277
vn -0.8279 -0.5121 -0.2289
vn -0.6465 -0.7117 -0.2748
vn -0.7579 -0.6110 -0.2287
vn -0.0000 -0.2252 -0.9743
vn -0.1204 -0.5242 -0.8430
vn -0.2262 -0.6737 -0.7036
vn -0.1811 -0.4660 -0.8661
vn -0.0781 -0.9930 -0.0890
vn -0.1551 -0.9874 -0.0304
vn -0.1593 -0.9701 -0.1832
vn -0.0678 -0.9861 -0.1516
vn -0.0783 0.9887 -0.1277
vn -0.1904 0.9570 -0.2189
vn -0.1262 0.9798 -0.1555
vn -0.0000 -0.2251 -0.9743
vn -0.1804 0.0064 -0.9836
vn -0.2924 0.2952 -0.9096
vn -0.1372 0.0988 -0.9856
vn -0.9742 0.2159 -0.0656
vn -0.8704 0.3248 -0.3700
vn -0.9718 0.0073 -0.2356
vn 0.9665 -0.2568 -0.0000
vn 0.8279 -0.5121 0.2289
vn 0.6465 -0.7117 0.2748
vn 0.7579 -0.6110 0.2287
vn 0.1204 -0.5242 0.8430
vn 0.2262 -0.6737 0.7036
vn 0.1811 -0.4660 0.8661
vn 0.0781 -0.9930 0.0890
vn 0.1551 -0.9874 0.0304
vn 0.1593 -0.9701 0.1832
vn 0.0678 -0.9861 0.1516
vn 0.0783 0.9887 0.1277
vn 0.1904 0.9570 0.2189
vn 0.1262 0.9798 0.1555
vn 0.1804 0.0064 0.9836
vn 0.2924 0.2952 0.9096
vn 0.1372 0.0988 0.9856
vn 0.9665 -0.2567 -0.0000
vn 0.9742 0.2159 0.0656
vn 0.8704 0.3248 0.3700
vn 0.9718 0.0073 0.2356
vn 0.1811 -0.4659 -0.8661
vn 0.2262 -0.6737 -0.7036
vn 0.1848 -0.5631 -0.8054
vn 0.8026 -0.5773 -0.1500
vn 0.6465 -0.7117 -0.2748
vn 0.8279 -0.5121 -0.2289
vn 0.0781 -0.9930 -0.0890
vn 0.0262 -0.9831 -0.1814
vn 0.1593 -0.9701 -0.1832
vn 0.1294 -0.9885 -0.0784
vn 0.1112 0.9897 -0.0901
vn 0.1904 0.9570 -0.2189
vn 0.1353 0.9801 -0.1451
vn 0.9718 0.0073 -0.2356
vn 0.8704 0.3248 -0.3700
vn 0.9772 0.1127 -0.1799
vn 0.0499 0.1890 -0.9807
vn 0.2924 0.2952 -0.9096
vn 0.1804 0.0064 -0.9836
vn -0.5022 -0.6240 -0.5986
vn -0.4181 -0.8435 -0.3373
vn -0.3054 -0.8855 -0.3501
vn -0.6920 -0.6104 -0.3855
vn -0.0220 -0.9956 -0.0912
vn -0.2915 -0.8292 -0.4769
vn -0.5207 -0.6296 -0.5767
vn -0.5023 -0.6240 0.5986
vn -0.1020 -0.8439 0.5268
vn -0.3054 -0.8855 0.3501
vn -0.5196 -0.8455 0.1228
vn -0.5207 -0.6296 0.5767
vn -0.2915 -0.8292 0.4769
vn -0.0665 -0.9972 0.0338
vn 0.5022 -0.6241 -0.5985
vn 0.1020 -0.8439 -0.5268
vn 0.3054 -0.8855 -0.3501
vn 0.5196 -0.8455 -0.1228
vn 0.5215 -0.6285 -0.5771
vn 0.2915 -0.8292 -0.4769
vn 0.0665 -0.9972 -0.0338
vn 0.5022 -0.6241 0.5985
vn 0.4181 -0.8435 0.3373
vn 0.3054 -0.8855 0.3501
vn 0.6919 -0.6109 0.3848
vn 0.0220 -0.9956 0.0912
vn 0.2915 -0.8292 0.4769
vn 0.5215 -0.6284 0.5771
vn -1.0000 -0.0001 -0.0000
vn -0.9293 -0.2855 -0.2342
vn -0.7613 -0.5637 -0.3204
vn -0.8601 -0.4365 -0.2640
vn -0.0004 0.0003 -1.0000
vn -0.1227 -0.3568 -0.9261
vn -0.2585 -0.5230 -0.8121
vn -0.1792 -0.2550 -0.9502
vn -0.0000 -1.0000 -0.0000
vn -0.1316 -0.9909 -0.0282
vn -0.1744 -0.9640 -0.2005
vn -0.0745 -0.9896 -0.1231
vn -1.0000 -0.0000 -0.0000
vn -0.9028 -0.3999 0.1581
vn -0.7613 -0.5637 0.3204
vn -0.8531 -0.4601 0.2461
vn -0.0745 -0.9896 0.1231
vn -0.1744 -0.9640 0.2005
vn -0.1072 -0.9905 0.0857
vn -0.0004 0.0003 1.0000
vn -0.2247 -0.0858 0.9706
vn -0.2585 -0.5230 0.8121
vn -0.1227 -0.3568 0.9261
vn 1.0000 -0.0000 -0.0000
vn 0.9028 -0.3999 -0.1581
vn 0.7613 -0.5637 -0.3204
vn 0.8529 -0.4605 -0.2460
vn 0.0745 -0.9896 -0.1231
vn 0.1744 -0.9640 -0.2005
vn 0.1072 -0.9905 -0.0857
vn 0.2267 -0.0855 -0.9702
vn 0.2585 -0.5230 -0.8121
vn 0.1227 -0.3568 -0.9261
vn 1.0000 -0.0001 -0.0000
vn 0.9292 -0.2863 0.2339
vn 0.7613 -0.5637 0.3204
vn 0.8601 -0.4365 0.2640
vn -0.0003 0.0003 1.0000
vn 0.1227 -0.3568 0.9261
vn 0.2585 -0.5230 0.8121
vn 0.1809 -0.2546 0.9500
vn 0.1316 -0.9909 0.0282
vn 0.1744 -0.9640 0.2005
vn 0.0745 -0.9896 0.1231
vn -0.6555 -0.0016 -0.7552
vn -0.4313 0.8274 -0.3598
vn -0.3395 0.7453 -0.5738
vn -0.5169 0.3052 -0.7998
vn 0.0101 -0.0004 -0.9999
vn 0.0297 0.7981 -0.6018
vn -0.1502 0.3477 -0.9255
vn -0.5450 0.0045 -0.8384
vn 0.0319 0.8739 -0.4850
vn -0.3509 0.8721 -0.3412
vn -0.6706 0.0031 -0.7418
vn -0.2378 -0.5043 -0.8301
vn -0.3611 -0.7420 -0.5648
vn -0.4932 -0.7933 -0.3570
vn 0.0042 -0.8827 -0.4699
vn -0.3761 -0.8612 -0.3419
vn 0.0048 0.0003 -1.0000
vn -0.3645 0.3643 -0.8570
vn -0.1605 -0.3468 -0.9241
vn 0.0099 -0.7929 -0.6093
vn -0.6706 0.0031 0.7418
vn -0.4485 -0.8186 0.3588
vn -0.3611 -0.7420 0.5648
vn -0.5245 -0.3136 0.7915
vn 0.0101 0.0003 0.9999
vn 0.0099 -0.7929 0.6093
vn -0.1605 -0.3468 0.9241
vn -0.5369 0.0110 0.8436
vn 0.0042 -0.8827 0.4699
vn -0.3761 -0.8612 0.3420
vn -0.6554 -0.0016 0.7552
vn -0.2133 0.4860 0.8476
vn -0.3395 0.7453 0.5738
vn -0.4706 0.8064 0.3582
vn 0.0319 0.8739 0.4850
vn -0.3509 0.8721 0.3412
vn 0.0048 -0.0005 1.0000
vn -0.3831 -0.3624 0.8497
vn -0.1502 0.3477 0.9255
vn 0.0297 0.7981 0.6018
vn 0.1275 0.9834 0.1294
vn 0.4106 0.9091 -0.0696
vn 0.5743 0.7369 -0.3566
vn 0.4571 0.8819 -0.1152
vn 0.3165 0.8570 -0.4067
vn 0.9362 0.2001 -0.2890
vn 0.9984 0.0530 -0.0218
vn 0.5616 0.5079 -0.6532
vn 0.1008 -0.9859 0.1338
vn 0.5444 -0.8368 -0.0587
vn 0.4858 -0.7786 -0.3973
vn 0.2061 -0.9527 -0.2235
vn 0.9987 -0.0246 -0.0449
vn 0.5581 -0.5110 -0.6538
vn 0.8365 -0.5314 -0.1336
vn 0.5845 -0.7948 -0.1631
vn 0.3121 -0.8616 -0.4003
vn 0.9355 -0.2220 -0.2749
vn 0.1007 -0.9859 -0.1337
vn 0.4002 -0.9150 0.0509
vn 0.4847 -0.7801 0.3957
vn 0.5705 -0.8057 0.1590
vn 0.3145 -0.8612 0.3993
vn 0.9401 -0.2058 0.2716
vn 0.9984 -0.0525 0.0223
vn 0.5788 -0.8149 -0.0315
vn 0.8325 -0.5390 0.1282
vn 0.5503 -0.5130 0.6588
vn 0.1274 0.9834 -0.1292
vn 0.5954 0.7425 0.3070
vn 0.5724 0.7395 0.3542
vn 0.2264 0.9454 0.2344
vn 0.9986 0.0247 0.0459
vn 0.5537 0.5100 0.6582
vn 0.3188 0.8566 0.4058
vn 0.9405 0.1838 0.2856
vn -0.2399 0.9708 -0.0000
vn 0.0815 0.9932 -0.0832
vn 0.1672 0.9659 -0.1975
vn 0.0872 0.9889 -0.1206
vn 0.9987 0.0250 -0.0451
vn 0.9161 0.2784 -0.2884
vn 0.7667 0.5351 -0.3548
vn 0.9082 0.3823 -0.1707
vn 0.2837 0.0001 -0.9589
vn 0.2269 0.3817 -0.8960
vn 0.4093 0.4889 -0.7704
vn 0.3564 0.2455 -0.9015
vn -1.0000 -0.0001 -0.0001
vn 0.1649 -0.9794 -0.1168
vn 0.2843 -0.9417 -0.1797
vn 0.2209 -0.9653 -0.1390
vn 0.2837 -0.0001 -0.9589
vn 0.3851 -0.2308 -0.8936
vn 0.4579 -0.4715 -0.7537
vn 0.3493 -0.3522 -0.8683
vn 0.9984 -0.0524 -0.0221
vn 0.8953 -0.4412 -0.0605
vn 0.7970 -0.5117 -0.3208
vn 0.9253 -0.2689 -0.2674
vn -0.5367 -0.7575 -0.3716
vn 0.1402 -0.9861 0.0890
vn 0.1900 -0.9627 0.1925
vn 0.4727 -0.8747 0.1071
vn 0.9986 -0.0251 0.0464
vn 0.8864 -0.3393 0.3149
vn 0.6772 -0.6552 0.3348
vn 0.8956 -0.4132 0.1647
vn -0.2837 -0.0001 0.9589
vn -0.6512 -0.2554 0.7147
vn 0.0330 -0.5883 0.8080
vn -0.1496 -0.2630 0.9531
vn 0.4378 0.4933 0.7517
vn 0.3732 0.8051 -0.4610
vn 0.0610 0.9765 0.2067
vn 0.0228 0.9821 0.1871
vn -0.2836 0.0001 0.9589
vn -0.1884 0.2809 0.9411
vn -0.0400 0.5953 0.8025
vn -0.2703 -0.9093 0.3165
vn 0.9983 0.0539 0.0230
vn 0.8438 0.5364 0.0122
vn 0.6158 0.6956 0.3699
vn 0.8677 0.3533 0.3497
vn -0.1155 0.9855 -0.1240
vn -0.1776 0.9655 -0.1905
vn -0.1447 0.9739 -0.1749
vn 0.2837 -0.0000 -0.9589
vn 0.0871 0.2582 -0.9621
vn -0.0524 0.5867 -0.8081
vn 0.0824 0.4445 -0.8920
vn -0.8679 0.4966 -0.0140
vn -0.7329 0.6132 -0.2948
vn -0.9313 0.2958 -0.2125
vn -0.0026 -0.9958 -0.0918
vn -0.0527 -0.9797 -0.1933
vn -0.0450 -0.9869 -0.1552
vn -0.9263 -0.3143 -0.2079
vn -0.6925 -0.6502 -0.3126
vn -0.8791 -0.4501 -0.1570
vn 0.2250 -0.4686 -0.8543
vn 0.0240 -0.5874 -0.8090
vn 0.1459 -0.2850 -0.9473
vn -0.1246 -0.7875 -0.6036
vn -0.1718 -0.9752 0.1397
vn -0.1650 -0.9676 0.1910
vn -0.0930 -0.9888 0.1164
vn -0.3691 -0.2755 0.8876
vn -0.4140 -0.5348 0.7366
vn -0.4092 -0.5025 0.7616
vn -0.8589 -0.5089 0.0575
vn -0.7724 -0.5724 0.2752
vn -0.9407 -0.2993 0.1599
vn -0.1886 0.9324 0.3083
vn -0.2021 0.9767 0.0727
vn -0.2830 0.9410 0.1857
vn -0.3919 0.7515 -0.5307
vn -1.0000 0.0001 -0.0000
vn -0.9463 0.2775 0.1659
vn -0.8000 0.5407 0.2600
vn -0.8981 0.4211 0.1272
vn -0.2837 -0.0000 0.9589
vn 0.1176 -0.3824 0.9165
vn -0.4692 0.5188 0.7146
vn -0.4150 0.2491 0.8751
vn -0.0987 -0.9944 0.0383
vn -0.2680 -0.9634 -0.0077
vn -0.7217 -0.6919 0.0195
vn -0.9664 -0.2569 -0.0000
vn -0.2097 0.9778 -0.0000
vn -0.8657 0.5006 -0.0000
vn -0.0323 -0.9920 -0.1218
vn 0.0067 -0.9502 -0.3117
vn -0.0168 -0.6326 -0.7743
vn -0.0000 0.9709 -0.2394
vn -0.0000 0.4493 -0.8934
vn 0.0987 -0.9944 -0.0383
vn 0.2680 -0.9634 0.0077
vn 0.7217 -0.6919 -0.0195
vn 0.9664 -0.2569 -0.0000
vn 0.2097 0.9778 -0.0000
vn 0.8657 0.5006 -0.0000
vn 0.0323 -0.9920 0.1218
vn -0.0067 -0.9502 0.3117
vn 0.0168 -0.6326 0.7743
vn -0.0000 0.9709 0.2394
vn -0.0000 0.4493 0.8934
vn 0.0323 -0.9920 -0.1218
vn 0.0061 -0.9519 -0.3064
vn -0.0010 -0.6244 -0.7811
vn -0.0323 -0.9920 0.1218
vn -0.0061 -0.9519 0.3064
vn 0.0010 -0.6244 0.7811
vn -0.0987 -0.9944 -0.0383
vn -0.2633 -0.9647 -0.0062
vn -0.7292 -0.6843 0.0011
vn 0.0987 -0.9944 0.0383
vn 0.2633 -0.9647 0.0062
vn 0.7292 -0.6843 -0.0011
vn -0.8920 -0.2816 0.3536
vn -0.8920 -0.2816 -0.3536
vn -0.6202 -0.7383 -0.2651
vn -0.6478 -0.7047 0.2893
vn 0.6202 -0.7383 0.2651
vn 0.6478 -0.7047 -0.2893
vn 0.8920 -0.2816 -0.3535
vn 0.8920 -0.2817 0.3535
vn -0.2770 -0.2524 -0.9271
vn 0.2757 -0.2523 -0.9275
vn 0.2409 -0.6661 -0.7059
vn -0.2409 -0.6661 -0.7059
vn -0.2409 -0.6661 0.7059
vn 0.2409 -0.6661 0.7059
vn 0.2757 -0.2523 0.9275
vn -0.2770 -0.2524 0.9271
vn -0.0005 0.0002 1.0000
vn 0.3389 -0.0000 0.9408
vn 0.9028 -0.0000 0.4300
vn -0.0005 -0.0003 -1.0000
vn 0.6154 -0.2175 -0.7576
vn 0.2778 -0.5729 -0.7711
vn 0.3389 -0.0000 -0.9408
vn 0.9028 -0.0000 -0.4300
vn 0.9997 -0.0000 -0.0238
vn 0.6639 -0.2208 -0.7145
vn -0.7579 -0.5759 -0.3065
vn -0.6504 0.3900 -0.6519
vn -0.6120 -0.2184 0.7601
vn -0.2754 -0.5727 0.7721
vn -0.7464 0.5936 0.3009
vn -0.9997 -0.0001 0.0245
vn -0.6634 -0.2208 0.7150
vn -0.6463 -0.3998 0.6499
vn 0.6154 -0.2175 0.7576
vn -0.0005 -0.0003 1.0000
vn 0.0437 -0.2611 0.9643
vn 0.7901 -0.5744 0.2138
vn 0.6639 -0.2208 0.7145
vn -0.0005 0.0002 -1.0000
vn -0.6120 -0.2184 -0.7601
vn -0.0412 -0.2618 -0.9643
vn -0.7901 -0.5744 -0.2140
vn -0.7309 0.5966 -0.3315
vn -0.6463 -0.3998 -0.6499
vn -0.6634 -0.2208 -0.7150
vn -0.7413 -0.5792 0.3392
vn -0.6504 0.3899 0.6519
vn -0.1298 0.9646 0.2297
vn -0.1298 0.9646 -0.2297
vn -0.3564 0.9108 -0.2084
vn -0.2536 0.9300 0.2661
vn -0.4165 0.9029 0.1063
vn -0.4755 0.8479 -0.2344
vn -0.7686 0.5158 -0.3784
vn -0.7686 0.5158 0.3784
vn -0.7754 -0.5075 0.3757
vn -0.7754 -0.5075 -0.3757
vn -0.4348 -0.8944 -0.1050
vn -0.4927 -0.8397 0.2286
vn -0.3837 -0.9005 0.2047
vn -0.2826 -0.9234 -0.2598
vn -0.1588 -0.9602 -0.2297
vn -0.1588 -0.9602 0.2297
vn 0.0780 -0.8453 0.5285
vn 0.0220 0.0150 0.9996
vn -0.1801 -0.9587 0.2200
vn 0.2164 -0.9535 0.2097
vn 0.0919 -0.8590 0.5037
vn 0.1331 -0.8907 0.4347
vn 0.0789 -0.8468 -0.5260
vn 0.1596 -0.0452 -0.9861
vn 0.1864 -0.9757 -0.1149
vn -0.1801 -0.9587 -0.2200
vn 0.1331 -0.8907 -0.4347
vn 0.0920 -0.8589 -0.5039
vn 0.1672 0.8817 0.4412
vn 0.1254 0.8586 0.4971
vn 0.2106 0.9701 0.1207
vn -0.1545 0.9644 0.2144
vn 0.1640 0.0661 0.9842
vn 0.0986 0.8444 0.5266
vn 0.1255 0.8584 -0.4973
vn 0.1673 0.8817 -0.4411
vn -0.1545 0.9645 -0.2144
vn 0.2405 0.9469 -0.2136
vn 0.0379 0.0168 -0.9991
vn 0.0995 0.8458 -0.5241
vn 0.3308 0.6418 -0.6918
vn 0.3280 -0.6392 -0.6956
vn 0.1034 -0.4951 -0.8627
vn 0.1057 0.4920 -0.8642
vn 0.1034 0.4886 0.8664
vn 0.1011 -0.4918 0.8648
vn 0.3235 -0.6452 0.6922
vn 0.3263 0.6477 0.6884
vn -0.6298 -0.7614 0.1537
vn 0.2123 -0.9523 0.2193
vn -0.5421 -0.8065 -0.2359
vn -0.5722 -0.7964 0.1959
vn -0.2132 -0.6660 -0.7148
vn 0.2387 -0.9651 -0.1075
vn -0.5273 -0.5752 -0.6254
vn 0.8507 -0.1961 -0.4877
vn -0.1086 -0.9935 0.0352
vn -0.0697 -0.9938 0.0868
vn -0.0327 -0.9905 0.1334
vn -0.0327 -0.9905 -0.1334
vn -0.0697 -0.9938 -0.0868
vn -0.1086 -0.9935 -0.0352
vn 0.0697 -0.9938 0.0868
vn 0.1086 -0.9935 0.0352
vn 0.0327 -0.9905 0.1334
vn 0.0327 -0.9905 -0.1334
vn 0.1086 -0.9935 -0.0352
vn 0.0697 -0.9938 -0.0868
vn -0.0004 -0.0005 -1.0000
vn 0.0049 -0.0002 -1.0000
vn -0.0004 -0.0005 1.0000
vn 0.0049 -0.0002 1.0000
vn 0.0047 0.0001 -1.0000
vn 0.0047 0.0001 1.0000
vn 0.0287 0.9996 -0.0000
vn 0.0154 -0.0000 -0.9999
vn -0.0032 -1.0000 -0.0000
vn 0.0154 -0.0000 0.9999
vn 0.9985 0.0390 0.0379
vn 0.9985 0.0392 -0.0370
vn 0.9983 0.0518 -0.0267
vn 0.9983 0.0523 0.0269
vn 0.9986 -0.0389 -0.0371
vn 0.9983 -0.0516 -0.0266
vn 0.9985 -0.0387 0.0380
vn 0.9983 -0.0522 0.0267
vn -0.2950 0.9555 -0.0000
vt 0.708333 0.583333
vt 0.791667 0.583333
vt 0.791667 0.666667
vt 0.708333 0.666667
vt 0.133212 0.741613
vt 0.132810 0.750000
vt 0.127986 0.750000
vt 0.125000 0.742190
vt 0.381418 0.992071
vt 0.380930 1.000000
vt 0.377015 1.000000
vt 0.375000 0.992190
vt 0.381418 0.007929
vt 0.375000 0.007810
vt 0.375000 0.002986
vt 0.380930 0.000000
vt 0.618582 0.006264
vt 0.618094 0.000000
vt 0.621590 0.000000
vt 0.625000 0.006345
vt 0.618582 0.993736
vt 0.625000 0.993655
vt 0.625000 0.997081
vt 0.618094 1.000000
vt 0.868913 0.743913
vt 0.875000 0.743655
vt 0.875000 0.747081
vt 0.868655 0.750000
vt 0.381418 0.242071
vt 0.380930 0.250000
vt 0.376007 0.251493
vt 0.375000 0.242190
vt 0.381418 0.257929
vt 0.375000 0.257810
vt 0.133212 0.508387
vt 0.125000 0.507810
vt 0.125000 0.502986
vt 0.132810 0.500000
vt 0.868913 0.506087
vt 0.868655 0.500000
vt 0.872081 0.500000
vt 0.875000 0.506345
vt 0.618582 0.256264
vt 0.618094 0.250000
vt 0.623295 0.248541
vt 0.625000 0.256345
vt 0.618582 0.243736
vt 0.625000 0.243655
vt 0.381418 0.742071
vt 0.380930 0.750000
vt 0.375672 0.750000
vt 0.375000 0.742190
vt 0.381418 0.757929
vt 0.371095 0.753905
vt 0.366788 0.741613
vt 0.631087 0.743913
vt 0.628173 0.753173
vt 0.624836 0.749027
vt 0.625000 0.743655
vt 0.618582 0.756264
vt 0.618094 0.750000
vt 0.618582 0.743736
vt 0.381418 0.492071
vt 0.380930 0.500000
vt 0.374676 0.500995
vt 0.371095 0.496095
vt 0.381418 0.507929
vt 0.375000 0.507810
vt 0.366788 0.508387
vt 0.631087 0.506087
vt 0.625000 0.506345
vt 0.623863 0.500000
vt 0.628173 0.496827
vt 0.618582 0.506264
vt 0.618094 0.500000
vt 0.618582 0.493736
vt 0.208333 0.589217
vt 0.208333 0.583474
vt 0.208348 0.583350
vt 0.208333 0.583333
vt 0.199920 0.574175
vt 0.208436 0.583333
vt 0.215093 0.583333
vt 0.208333 0.660783
vt 0.208333 0.666667
vt 0.208348 0.666650
vt 0.208333 0.666543
vt 0.215093 0.666667
vt 0.208442 0.666667
vt 0.199796 0.675548
vt 0.291667 0.589217
vt 0.291667 0.583333
vt 0.291652 0.583350
vt 0.291667 0.583457
vt 0.284906 0.583333
vt 0.291558 0.583333
vt 0.300204 0.574452
vt 0.291667 0.660783
vt 0.291667 0.666525
vt 0.291652 0.666650
vt 0.291667 0.666667
vt 0.300080 0.675825
vt 0.291564 0.666667
vt 0.284906 0.666667
vt 0.208333 0.589217
vt 0.208333 0.583333
vt 0.209286 0.584162
vt 0.208333 0.589217
vt 0.215093 0.583333
vt 0.215093 0.589217
vt 0.208333 0.660783
vt 0.209286 0.665838
vt 0.215093 0.660783
vt 0.215093 0.666667
vt 0.291667 0.589217
vt 0.290714 0.584162
vt 0.284907 0.589217
vt 0.284907 0.583333
vt 0.291667 0.660783
vt 0.290714 0.665838
vt 0.291667 0.660783
vt 0.284906 0.666667
vt 0.284907 0.666667
vt 0.284907 0.660783
vt 0.208333 0.589217
vt 0.208333 0.583333
vt 0.208333 0.584158
vt 0.208333 0.589166
vt 0.212403 0.585266
vt 0.206955 0.585132
vt 0.208333 0.589217
vt 0.208333 0.589166
vt 0.208333 0.584158
vt 0.208333 0.583333
vt 0.206952 0.585125
vt 0.213300 0.584622
vt 0.208333 0.660783
vt 0.208333 0.666667
vt 0.208333 0.665842
vt 0.208333 0.660834
vt 0.212403 0.668875
vt 0.206952 0.656590
vt 0.208333 0.660834
vt 0.208333 0.665842
vt 0.206955 0.656597
vt 0.213300 0.668139
vt 0.001379 0.004018
vt 0.001432 0.004009
vt 0.000191 0.000536
vt 0.000000 0.000000
vt 0.001381 0.003866
vt 0.001381 0.004025
vt 0.000192 0.000537
vt 0.001389 0.003888
vt 0.001381 0.003866
vt 0.001381 0.004261
vt 0.001389 0.004443
vt 0.000192 0.000613
vt 0.001381 0.004418
vt 0.001379 0.004254
vt 0.000191 0.000612
vt 0.001432 0.004582
vt 0.133667 0.666667
vt 0.125000 0.666955
vt 0.375000 0.083045
vt 0.381418 0.083333
vt 0.868913 0.583333
vt 0.875000 0.583372
vt 0.625000 0.166628
vt 0.618582 0.166667
vt 0.208333 0.509545
vt 0.208145 0.500000
vt 0.375000 0.333145
vt 0.381418 0.333333
vt 0.708333 0.506087
vt 0.708372 0.500000
vt 0.625000 0.416628
vt 0.618582 0.416667
vt 0.366333 0.583333
vt 0.375000 0.583045
vt 0.381418 0.583333
vt 0.631087 0.666667
vt 0.625000 0.666628
vt 0.618582 0.666667
vt 0.291667 0.740455
vt 0.291855 0.750000
vt 0.375000 0.833145
vt 0.381418 0.833333
vt 0.791667 0.743913
vt 0.791628 0.750000
vt 0.625000 0.916628
vt 0.618582 0.916667
vt 0.291667 0.509545
vt 0.291855 0.500000
vt 0.375000 0.416855
vt 0.381418 0.416667
vt 0.791667 0.506087
vt 0.791628 0.500000
vt 0.625000 0.333372
vt 0.618582 0.333333
vt 0.208333 0.740455
vt 0.208145 0.750000
vt 0.375000 0.916855
vt 0.381418 0.916667
vt 0.708333 0.743913
vt 0.708372 0.750000
vt 0.625000 0.833372
vt 0.618582 0.833333
vt 0.133667 0.583333
vt 0.125000 0.583045
vt 0.375000 0.166955
vt 0.381418 0.166667
vt 0.868913 0.666667
vt 0.875000 0.666628
vt 0.625000 0.083372
vt 0.618582 0.083333
vt 0.366333 0.666667
vt 0.375000 0.666955
vt 0.381418 0.666667
vt 0.631087 0.583333
vt 0.625000 0.583372
vt 0.618582 0.583333
vt 0.284907 0.666667
vt 0.291667 0.666667
vt 0.284906 0.583333
vt 0.291667 0.583333
vt 0.291667 0.589217
vt 0.284906 0.666667
vt 0.291667 0.666667
vt 0.291667 0.660783
vt 0.284907 0.583333
vt 0.291667 0.583333
vt 0.291667 0.589217
s 1
f 1/1/1 3/2/1 4/3/1 2/4/1
f 9/5/2 12/6/3 13/7/4 15/8/5
f 10/9/6 14/10/7 13/11/8 12/12/9
f 11/13/10 15/14/11 13/15/12 14/16/13
f 16/17/14 19/18/15 20/19/16 22/20/17
f 17/21/18 21/22/19 20/23/20 19/24/21
f 18/25/1 22/26/22 20/27/23 21/28/24
f 23/29/10 26/30/25 27/31/26 29/32/27
f 24/33/28 28/34/29 27/31/30 26/30/31
f 25/35/32 29/36/33 27/37/34 28/38/35
f 30/39/1 33/40/36 34/41/37 36/42/38
f 31/43/39 35/44/40 34/45/41 33/46/42
f 32/47/14 36/48/43 34/45/44 35/44/45
f 37/49/46 40/50/47 41/51/48 43/52/49
f 38/53/6 42/54/50 41/51/51 40/50/52
f 39/55/53 43/52/54 41/51/55 42/54/56
f 44/56/1 47/57/57 48/58/58 50/59/59
f 45/60/18 49/61/60 48/58/61 47/57/62
f 46/62/63 50/59/64 48/58/65 49/61/66
f 51/63/28 54/64/67 55/65/68 57/66/69
f 52/67/46 56/68/70 55/65/71 54/64/72
f 53/69/73 57/66/74 55/65/75 56/68/76
f 58/70/1 61/71/77 62/72/78 64/73/79
f 59/74/63 63/75/80 62/72/81 61/71/82
f 60/76/39 64/73/83 62/72/84 63/75/85
f 113/77/86 116/78/87 117/79/88 119/80/89
f 114/81/90 118/82/91 117/79/88 116/78/87
f 115/83/92 119/80/89 117/79/88 118/82/91
f 120/84/93 123/85/94 124/86/95 126/87/96
f 121/88/97 125/89/98 124/86/95 123/85/94
f 122/90/99 126/87/96 124/86/95 125/89/98
f 127/91/100 130/92/101 131/93/102 133/94/103
f 128/95/104 132/96/105 131/93/102 130/92/101
f 129/97/106 133/94/103 131/93/102 132/96/105
f 134/98/107 137/99/108 138/100/109 140/101/110
f 135/102/111 139/103/112 138/100/109 137/99/108
f 136/104/113 140/101/110 138/100/109 139/103/112
f 141/105/114 144/106/115 145/107/116 147/108/117
f 142/83/118 146/109/119 145/107/120 144/106/121
f 143/110/122 147/108/123 145/107/124 146/109/125
f 148/84/126 151/111/127 152/112/128 154/85/129
f 149/113/122 153/88/130 152/112/131 151/111/132
f 150/114/133 154/85/134 152/112/135 153/88/136
f 155/115/137 158/91/138 159/116/139 161/92/140
f 156/117/122 160/118/141 159/116/142 158/91/143
f 157/95/118 161/92/144 159/116/145 160/118/146
f 162/119/147 165/101/148 166/120/149 168/121/150
f 163/122/151 167/123/152 166/120/153 165/101/154
f 164/124/122 168/121/155 166/120/156 167/123/157
f 181/125/158 184/126/159 185/127/160 187/128/161
f 182/129/162 186/126/163 185/127/164 184/126/165
f 183/130/166 187/128/161 185/127/160 186/126/167
f 188/131/168 191/132/169 192/133/170 194/134/171
f 189/135/172 193/134/173 192/133/170 191/132/169
f 190/136/174 194/134/175 192/133/176 193/134/177
f 195/137/178 198/138/179 199/139/180 201/140/181
f 196/141/182 200/138/183 199/139/184 198/138/185
f 197/142/186 201/140/181 199/139/180 200/138/187
f 202/84/188 205/143/189 206/144/190 208/85/191
f 203/145/192 207/85/193 206/144/190 205/143/189
f 204/146/194 208/85/195 206/144/196 207/85/197
f 209/147/198 212/148/199 213/149/200 215/150/201
f 210/151/202 214/150/203 213/149/200 212/148/199
f 211/150/204 215/150/201 213/149/200 214/150/205
f 216/152/206 219/150/207 220/153/208 222/154/209
f 217/150/210 221/150/211 220/153/212 219/150/213
f 218/155/214 222/154/209 220/153/208 221/150/215
f 223/156/216 226/157/217 227/158/218 229/150/219
f 224/159/220 228/150/221 227/158/218 226/157/217
f 225/150/222 229/150/223 227/158/224 228/150/225
f 230/160/226 233/150/227 234/161/228 236/162/229
f 231/150/230 235/150/231 234/161/228 233/150/227
f 232/159/232 236/162/229 234/161/228 235/150/233
f 237/150/234 240/150/235 241/150/236 243/150/237
f 238/150/238 242/150/239 241/150/240 240/150/241
f 239/150/242 243/150/243 241/150/244 242/150/245
f 244/150/246 247/150/247 248/150/248 250/150/249
f 245/150/250 249/150/251 248/150/252 247/150/253
f 246/150/254 250/150/255 248/150/256 249/150/257
f 251/150/258 254/150/259 255/150/260 257/150/261
f 252/150/262 256/150/263 255/150/264 254/150/265
f 253/150/266 257/150/267 255/150/268 256/150/269
f 258/150/270 261/150/271 262/150/272 264/150/273
f 259/150/274 263/150/275 262/150/276 261/150/277
f 260/150/278 264/150/279 262/150/280 263/150/281
f 265/150/234 268/150/282 269/150/283 271/150/284
f 266/150/285 270/150/286 269/150/287 268/150/288
f 267/150/126 271/150/289 269/150/290 270/150/291
f 272/150/126 275/150/292 276/150/293 278/150/294
f 273/150/126 277/150/295 276/150/296 275/150/297
f 274/150/285 278/150/298 276/150/299 277/150/300
f 279/150/301 282/150/302 283/150/303 285/150/304
f 280/150/266 284/150/305 283/150/306 282/150/307
f 281/150/126 285/150/308 283/150/309 284/150/310
f 286/150/311 289/150/312 290/150/313 292/150/314
f 287/150/315 291/150/316 290/150/317 289/150/318
f 288/150/319 292/150/320 290/150/321 291/150/322
f 93/163/323 9/5/2 15/8/5 94/164/324
f 94/165/325 15/14/11 11/13/10 92/166/326
f 10/9/6 17/21/18 19/24/21 14/10/7
f 14/16/13 19/18/15 16/17/14 11/13/10
f 99/167/1 30/39/1 36/42/38 100/168/327
f 100/169/328 36/48/43 32/47/14 98/170/14
f 31/43/39 24/33/28 26/30/31 35/44/40
f 35/44/45 26/30/25 23/29/10 32/47/14
f 69/171/329 25/35/32 28/38/35 70/172/330
f 70/173/331 28/34/29 24/33/28 68/174/28
f 75/175/1 58/70/1 64/73/79 76/176/332
f 76/177/333 64/73/83 60/76/39 74/178/39
f 59/74/63 52/67/46 54/64/72 63/75/80
f 63/75/85 54/64/67 51/63/28 60/76/39
f 105/179/334 53/69/73 56/68/76 106/180/335
f 106/180/336 56/68/70 52/67/46 104/181/337
f 111/182/1 44/56/1 50/59/59 112/183/338
f 112/183/339 50/59/64 46/62/63 110/184/63
f 45/60/18 38/53/6 40/50/52 49/61/60
f 49/61/66 40/50/47 37/49/46 46/62/63
f 81/185/340 39/55/53 42/54/56 82/186/341
f 82/187/342 42/54/50 38/53/6 80/188/6
f 87/189/1 18/25/1 21/28/24 88/190/343
f 88/191/344 21/22/19 17/21/18 86/192/18
f 53/69/73 65/193/345 67/194/346 57/66/74
f 57/66/69 67/195/347 66/196/28 51/63/28
f 65/193/345 69/171/329 70/172/330 67/194/346
f 67/195/347 70/173/331 68/174/28 66/196/28
f 30/39/1 71/197/1 73/198/332 33/40/36
f 33/46/42 73/199/333 72/200/39 31/43/39
f 71/197/1 75/175/1 76/176/332 73/198/332
f 73/199/333 76/177/333 74/178/39 72/200/39
f 9/5/2 77/201/348 79/202/349 12/6/3
f 12/12/9 79/203/350 78/204/6 10/9/6
f 77/201/348 81/185/340 82/186/341 79/202/349
f 79/203/350 82/187/342 80/188/6 78/204/6
f 44/56/1 83/205/1 85/206/343 47/57/57
f 47/57/62 85/207/344 84/208/18 45/60/18
f 83/205/1 87/189/1 88/190/343 85/206/343
f 85/207/344 88/191/344 86/192/18 84/208/18
f 25/35/32 89/209/351 91/210/352 29/36/33
f 29/32/27 91/211/353 90/212/326 23/29/10
f 89/209/351 93/163/323 94/164/324 91/210/352
f 91/211/353 94/165/325 92/166/326 90/212/326
f 18/25/1 95/213/1 97/214/327 22/26/22
f 22/20/17 97/215/328 96/216/14 16/17/14
f 95/213/1 99/167/1 100/168/327 97/214/327
f 97/215/328 100/169/328 98/170/14 96/216/14
f 39/55/53 101/217/354 103/218/355 43/52/54
f 43/52/49 103/218/356 102/219/337 37/49/46
f 101/217/354 105/179/334 106/180/335 103/218/355
f 103/218/356 106/180/336 104/181/337 102/219/337
f 58/70/1 107/220/1 109/221/338 61/71/77
f 61/71/82 109/221/339 108/222/63 59/74/63
f 107/220/1 111/182/1 112/183/338 109/221/338
f 109/221/339 112/183/339 110/184/63 108/222/63
f 113/77/357 120/84/358 126/87/359 116/78/360
f 116/78/87 126/87/96 122/90/99 114/81/90
f 129/97/106 135/102/111 137/99/108 133/94/103
f 133/94/361 137/99/362 134/98/363 127/91/364
f 128/95/365 115/83/366 118/82/367 132/96/368
f 132/96/105 118/82/91 114/81/90 129/97/106
f 135/102/111 122/90/99 125/89/98 139/103/112
f 139/103/369 125/89/370 121/88/371 136/104/372
f 143/110/122 149/113/122 151/111/132 147/108/123
f 147/108/117 151/111/127 148/84/126 141/105/114
f 155/115/137 162/119/147 168/121/150 158/91/138
f 158/91/143 168/121/155 164/124/122 156/117/122
f 156/117/122 143/110/122 146/109/125 160/118/141
f 160/118/146 146/109/119 142/83/118 157/95/118
f 163/122/151 150/114/133 153/88/136 167/123/152
f 167/123/157 153/88/130 149/113/122 164/124/122
f 173/223/373 163/122/151 165/101/154 174/224/374
f 174/224/375 165/101/148 162/119/147 172/119/137
f 179/225/376 128/95/377 130/92/378 180/226/379
f 180/226/380 130/92/381 127/91/382 178/227/137
f 190/136/174 142/83/118 144/106/121 194/134/175
f 194/134/383 144/106/115 141/105/114 188/131/384
f 204/146/194 121/88/385 123/85/386 208/85/195
f 208/85/387 123/85/388 120/84/389 202/84/390
f 136/104/391 169/228/392 171/229/374 140/101/393
f 140/101/394 171/229/375 170/230/137 134/98/395
f 169/228/392 173/223/373 174/224/374 171/229/374
f 171/229/375 174/224/375 172/119/137 170/230/137
f 157/95/118 175/231/396 177/232/379 161/92/144
f 161/92/140 177/232/380 176/233/137 155/115/137
f 175/231/396 179/225/376 180/226/379 177/232/379
f 177/232/380 180/226/380 178/227/137 176/233/137
f 115/83/397 182/129/162 184/126/165 119/80/398
f 119/80/399 184/126/400 181/125/401 113/77/402
f 150/114/133 196/141/182 198/138/185 154/85/134
f 154/85/129 198/138/403 195/137/404 148/84/126
f 183/130/405 203/145/406 205/143/407 187/128/408
f 187/128/409 205/143/410 202/84/411 181/125/412
f 188/131/413 195/137/414 201/140/415 191/132/416
f 191/132/417 201/140/418 197/142/419 189/135/420
f 196/141/182 224/159/421 226/157/422 200/138/183
f 200/138/423 226/157/424 223/156/425 197/142/426
f 218/155/427 190/136/174 193/134/177 222/154/428
f 222/154/429 193/134/430 189/135/431 216/152/432
f 203/145/433 230/160/434 236/162/435 207/85/436
f 207/85/197 236/162/437 232/159/438 204/146/194
f 209/147/439 183/130/440 186/126/441 212/148/442
f 212/148/443 186/126/163 182/129/162 210/151/444
f 260/150/278 238/150/238 240/150/241 264/150/279
f 264/150/273 240/150/235 237/150/234 258/150/270
f 251/150/258 244/150/246 250/150/249 254/150/259
f 254/150/265 250/150/255 246/150/254 252/150/262
f 252/150/262 260/150/278 263/150/281 256/150/263
f 256/150/269 263/150/275 259/150/274 253/150/266
f 245/150/250 239/150/242 242/150/245 249/150/251
f 249/150/257 242/150/239 238/150/238 246/150/254
f 217/150/210 211/150/204 214/150/205 221/150/211
f 221/150/445 214/150/446 210/151/447 218/155/448
f 224/159/449 232/159/450 235/150/451 228/150/452
f 228/150/225 235/150/231 231/150/230 225/150/222
f 225/150/222 217/150/210 219/150/213 229/150/223
f 229/150/219 219/150/207 216/152/206 223/156/216
f 230/160/226 209/147/198 215/150/201 233/150/227
f 233/150/227 215/150/201 211/150/204 231/150/230
f 286/150/311 265/150/234 271/150/284 289/150/312
f 289/150/318 271/150/289 267/150/126 287/150/315
f 281/150/126 273/150/126 275/150/297 285/150/308
f 285/150/304 275/150/292 272/150/126 279/150/301
f 280/150/266 288/150/319 291/150/322 284/150/305
f 284/150/310 291/150/316 287/150/315 281/150/126
f 273/150/126 267/150/126 270/150/291 277/150/295
f 277/150/300 270/150/286 266/150/285 274/150/285
f 279/150/453 251/150/454 257/150/455 282/150/456
f 282/150/307 257/150/267 253/150/266 280/150/266
f 258/150/457 286/150/458 292/150/459 261/150/460
f 261/150/277 292/150/320 288/150/319 259/150/274
f 239/150/242 266/150/285 268/150/288 243/150/243
f 243/150/237 268/150/282 265/150/234 237/150/234
f 244/150/246 272/150/126 278/150/294 247/150/247
f 247/150/253 278/150/298 274/150/285 245/150/250
f 11/13/10 16/17/10 96/216/10 92/166/10
f 78/204/18 86/192/18 17/21/18 10/9/18
f 93/163/461 122/90/462 77/201/463 9/5/2
f 4/3/1 95/213/1 18/25/1 87/189/1
f 24/33/39 31/43/39 72/200/39 68/174/39
f 25/35/32 69/171/464 114/81/465 89/209/466
f 90/212/10 98/170/10 32/47/10 23/29/10
f 71/197/1 30/39/1 99/167/1 3/2/1
f 38/53/18 45/60/18 84/208/18 80/188/18
f 135/102/467 101/217/468 39/55/53 81/185/469
f 102/219/46 110/184/46 46/62/46 37/49/46
f 111/182/1 2/4/1 83/205/1 44/56/1
f 52/67/46 59/74/46 108/222/46 104/181/46
f 65/193/470 53/69/73 105/179/471 129/97/472
f 66/196/39 74/178/39 60/76/39 51/63/39
f 58/70/1 75/175/1 1/1/1 107/220/1
f 68/174/39 72/200/39 74/178/39 66/196/39
f 69/171/464 65/193/470 129/97/472 114/81/465
f 75/175/1 71/197/1 3/2/1 1/1/1
f 80/188/18 84/208/18 86/192/18 78/204/18
f 122/90/462 135/102/467 81/185/469 77/201/463
f 2/4/1 4/3/1 87/189/1 83/205/1
f 92/166/10 96/216/10 98/170/10 90/212/10
f 89/209/466 114/81/465 122/90/462 93/163/461
f 3/2/1 99/167/1 95/213/1 4/3/1
f 104/181/46 108/222/46 110/184/46 102/219/46
f 129/97/472 105/179/471 101/217/468 135/102/467
f 107/220/1 1/1/1 2/4/1 111/182/1
f 120/84/126 113/77/126 181/125/126 202/84/126
f 115/83/473 128/95/473 179/225/376 182/129/474
f 136/104/475 121/88/475 204/146/476 169/228/392
f 127/91/137 134/98/137 170/230/137 178/227/137
f 195/137/126 188/131/126 141/105/126 148/84/126
f 143/110/122 156/117/122 164/124/122 149/113/122
f 190/136/477 175/231/396 157/95/118 142/83/118
f 173/223/373 196/141/478 150/114/133 163/122/133
f 176/233/137 172/119/137 162/119/137 155/115/137
f 178/227/137 170/230/137 172/119/137 176/233/137
f 169/228/392 204/146/476 196/141/478 173/223/373
f 182/129/474 179/225/376 175/231/396 190/136/477
f 209/147/479 230/160/479 203/145/479 183/130/479
f 182/129/474 190/136/477 218/155/480 210/151/480
f 216/152/481 189/135/481 197/142/481 223/156/481
f 204/146/476 232/159/482 224/159/482 196/141/478
f 231/150/483 211/150/484 238/150/485 260/150/486
f 211/150/484 217/150/487 246/150/488 238/150/485
f 217/150/487 225/150/489 252/150/490 246/150/488
f 225/150/489 231/150/483 260/150/486 252/150/490
f 239/150/285 245/150/285 274/150/285 266/150/285
f 258/150/491 237/150/491 265/150/491 286/150/491
f 244/150/126 251/150/126 279/150/126 272/150/126
f 253/150/319 259/150/319 288/150/319 280/150/319
f 267/150/126 273/150/126 281/150/126 287/150/126
